<svg id="Layer_1" data-name="Layer 1" xmlns="http://www.w3.org/2000/svg" viewBox="0 0 1080 1080"><defs><style>.cls-1{fill:#fff;}.cls-2{fill:#231f20;}.cls-3{stroke:#231f20;stroke-miterlimit:10;}.cls-4{font-size:94.11px;font-family:Gilroy-Light, Gilroy;font-weight:300;letter-spacing:0.2em;}.cls-5{letter-spacing:0.2em;}.cls-6{letter-spacing:0.2em;}.cls-7{letter-spacing:0.19em;}</style></defs><path class="cls-1" d="M540,1079A539.14,539.14,0,0,1,330.2,43.36a539.14,539.14,0,0,1,419.6,993.28A535.56,535.56,0,0,1,540,1079Z"/><path class="cls-2" d="M540,2A535.57,535.57,0,0,1,840.8,93.88a539.5,539.5,0,0,1,194.92,236.71,537.33,537.33,0,0,1-49.6,510.21,539.5,539.5,0,0,1-236.71,194.92,537.33,537.33,0,0,1-510.21-49.6A539.5,539.5,0,0,1,44.28,749.41,537.33,537.33,0,0,1,93.88,239.2,539.5,539.5,0,0,1,330.59,44.28,534.48,534.48,0,0,1,540,2m0-2C241.77,0,0,241.77,0,540s241.77,540,540,540,540-241.77,540-540S838.23,0,540,0Z"/><path class="cls-3" d="M543,253.32a5.93,5.93,0,0,1,4.42,3,2.27,2.27,0,0,1,.13,2.38,15.31,15.31,0,0,1-1.6,2.16q-9.1,7.73-18.44,15.68-9.09,8-18.19,15.68l-47.2,40.91q-46.21,39.77-92.42,79.76a494.72,494.72,0,0,0-44.5,42.72,177.17,177.17,0,0,0-13.76,16.82,54.71,54.71,0,0,0-7.13,12.72q-4.68,11.37,5.9,18.86a102.27,102.27,0,0,0,14.5,8,186.08,186.08,0,0,0,23.11,8.86q11.79,3.63,23.84,6.82,40.32,10.9,80.63,21.58l6.88,1.82c.5.15,1.07.3,1.72.46a36.4,36.4,0,0,1,5.17,1.7,13.06,13.06,0,0,1,4.42,3.07,3.06,3.06,0,0,1,.74,3.07,3.55,3.55,0,0,1-2,2.38,13,13,0,0,1-9.83-.22,68.19,68.19,0,0,0-13.27-4.55q-6.89-1.59-14-2.95-6.13-1.14-12.29-2.73-9.59-2.28-19.17-4.32-25.81-5.91-51.13-13.18a357.18,357.18,0,0,1-41.3-14.31c-3.77-1.67-6.14-2.16-7.13-1.48s-1.47,3-1.47,6.93q-.25,3.4-.25,6.59a14.83,14.83,0,0,1,.25,2.73v35.9q0,46.81-.25,93.4,0,11.13-1,22.27-.25,5.22-.49,10.68a9.4,9.4,0,0,1-.74,3.75,5.15,5.15,0,0,1-2.95,2.61q-4.43,1.82-7.62.23a6.78,6.78,0,0,1-3.69-5.68c-.16-2.43-.33-4.78-.49-7.05q-1.23-16.81-1.48-33.86V486.25h.25V440.34q-.24-67.93,0-136.11,0-15.23,1-30.23.25-6.36,7.13-6.81,7.88-.92,8.85,6.13a137.18,137.18,0,0,1,1.23,18.41v86.81q.26,31.8.25,63.4a95.64,95.64,0,0,0,.73,11.81c0,.15.17.31.5.46l1,.45c.33.15.57.15.74,0a1.76,1.76,0,0,0,1.23-.45c.32-.31.65-.61,1-.91q16.47-18,34.54-34.2t36.5-32.16a27.65,27.65,0,0,0,2.46-2q55.06-47.49,110.62-94.54,12.28-10.44,24.33-20.9,8.12-6.6,16.23-12.95A17.65,17.65,0,0,1,543,253.32Z"/><path class="cls-3" d="M797.62,491.25a2,2,0,0,1,1.47,2.16,9.69,9.69,0,0,1-.86,3.75c-.57,1.36-1,2.5-1.35,3.4A427.86,427.86,0,0,1,760.13,565a247.79,247.79,0,0,1-51,54.19A277.55,277.55,0,0,1,675.94,641a211.41,211.41,0,0,1-37.61,16.36,147.05,147.05,0,0,1-23.23,6,137.66,137.66,0,0,1-24.22,1.48,155.89,155.89,0,0,1-15.73-.34,93.15,93.15,0,0,1-16-2.61q-37.11-9.78-55.31-41.82a115.35,115.35,0,0,1-9.58-22.61,163.87,163.87,0,0,1-5.17-23.06,230,230,0,0,1-.24-60.9,402.17,402.17,0,0,1,18.19-80A437.45,437.45,0,0,1,540,359.67a335.43,335.43,0,0,1,53.34-72,224.21,224.21,0,0,1,49.9-38.86,128.93,128.93,0,0,1,46.46-16.14,58.5,58.5,0,0,1,22.86.91q18,4.09,22.86,20.46,3.45,13.39,0,33.06a259.61,259.61,0,0,1-10.93,41,346.37,346.37,0,0,1-16.6,39.65q-9.09,18.3-16.71,29.2a8.83,8.83,0,0,1-5.41,3.3,17.9,17.9,0,0,1-7.13-.34,5.49,5.49,0,0,1-3.19-2,2.58,2.58,0,0,1-.5-3,21.08,21.08,0,0,1,2-4.32c.33-.76.74-1.59,1.23-2.5q2.7-6.13,6.39-13.64,8.12-16.57,16.84-36.35a283.81,283.81,0,0,0,14.13-39.43q5.41-19.67,3.94-35.56-2.72-26.82-29.5-20a111.31,111.31,0,0,0-22,8,178.16,178.16,0,0,0-19.54,11.14,229,229,0,0,0-34,27.72,280.89,280.89,0,0,0-28.15,32.5q-62.93,84.75-77.43,192a234.61,234.61,0,0,0,.25,63.4,110.06,110.06,0,0,0,11.79,36.58q9.34,17.73,22.25,27.05a70.84,70.84,0,0,0,26.8,12.27,82,82,0,0,0,26.18,1.59,137.91,137.91,0,0,0,40.56-10.46Q674.46,629,698.43,611t40.19-37.72a492.88,492.88,0,0,0,30.48-41.36q5.65-8.62,9.84-16.59a222.23,222.23,0,0,1,12.78-20.9Q794.42,490.79,797.62,491.25Z"/><text class="cls-4" transform="translate(280.9 825.49)">DE<tspan class="cls-5" x="156.23" y="0">S</tspan><tspan class="cls-6" x="228.6" y="0">IG</tspan><tspan class="cls-7" x="362.81" y="0">N</tspan><tspan x="445.34" y="0">S</tspan></text></svg>