<?xml version="1.0" encoding="utf-8"?>
<!-- Generator: Adobe Illustrator 26.0.1, SVG Export Plug-In . SVG Version: 6.00 Build 0)  -->
<svg version="1.1" id="Layer_1" xmlns="http://www.w3.org/2000/svg" xmlns:xlink="http://www.w3.org/1999/xlink" x="0px" y="0px"
	 viewBox="0 0 1080 1080" style="enable-background:new 0 0 1080 1080;" xml:space="preserve">
<style type="text/css">
	.st0{fill:#0A0A0A;stroke:#0A0A0A;stroke-miterlimit:10;}
	.st1{enable-background:new    ;}
	.st2{fill:#0A0A0A;}
</style>
<path class="st0" d="M544,154c2.5,0.3,4.7,1.8,6,4c0.6,1,0.7,2.2,0.2,3.2c-0.6,1-1.4,2-2.2,2.9c-8.2,6.9-16.4,14-24.8,21.1
	c-8.2,7.2-16.4,14.2-24.6,21.1l-63.5,55.1c-41.5,35.7-83,71.5-124.4,107.4c-21.1,17.9-41.1,37.1-59.9,57.5
	c-6.6,7.2-12.8,14.7-18.5,22.7c-3.9,5.3-7.2,11-9.6,17.1c-4.2,10.2-1.5,18.7,8,25.4c6.2,4.1,12.7,7.7,19.5,10.7
	c10.1,4.7,20.5,8.7,31.1,11.9c10.6,3.3,21.3,6.3,32.1,9.2c36.1,9.8,72.3,19.5,108.5,29l9.3,2.5c0.7,0.2,1.4,0.4,2.3,0.6
	c2.4,0.6,4.7,1.4,7,2.3c2.3,0.9,4.3,2.4,6,4.1c1.1,1.1,1.5,2.7,1,4.1c-0.3,1.4-1.3,2.6-2.6,3.2c-4.3,1.6-9,1.5-13.2-0.3
	c-5.7-2.6-11.7-4.7-17.9-6.1c-6.2-1.4-12.5-2.8-18.9-4c-5.5-1-11-2.2-16.5-3.7c-8.6-2-17.2-4-25.8-5.8
	c-23.2-5.3-46.1-11.2-68.8-17.8c-18.9-5.3-37.5-11.7-55.6-19.3c-5.1-2.2-8.3-2.9-9.6-2c-1.3,0.9-2,4-2,9.3c-0.2,3.1-0.3,6-0.3,8.9
	c0.2,1.2,0.3,2.4,0.3,3.7v48.3c0,42-0.1,83.9-0.3,125.7c0,10-0.4,20-1.3,30c-0.2,4.7-0.4,9.5-0.7,14.4c0,1.7-0.3,3.4-1,5
	c-0.8,1.7-2.2,2.9-4,3.5c-4,1.6-7.4,1.7-10.3,0.3c-2.8-1.4-4.5-4-5-7.7c-0.2-3.3-0.4-6.4-0.7-9.5c-1.1-15.1-1.8-30.3-2-45.6V467.6
	h0.3v-61.8c-0.2-61-0.2-122.1,0-183.3c0-13.7,0.4-27.2,1.3-40.7c0.2-5.7,3.4-8.8,9.6-9.2c7.1-0.8,11.1,2,12,8.3
	c1.1,8.2,1.7,16.5,1.7,24.7v116.9c0.2,28.6,0.3,57,0.3,85.4c0,5.3,0.3,10.6,1,15.9c0,0.2,0.2,0.4,0.7,0.6l1.3,0.6
	c0.4,0.2,0.8,0.2,1,0c0.6,0,1.2-0.2,1.6-0.6l1.3-1.2c14.8-16.1,30.3-31.5,46.5-46c16.2-14.5,32.6-29,49.1-43.3
	c1.1-0.9,2.3-1.8,3.3-2.8c49.4-42.6,99.1-85.1,148.9-127.3c11-9.4,21.9-18.8,32.8-28.1c7.3-5.9,14.6-11.7,21.9-17.4
	C531,154.5,537.6,152.9,544,154z"/>
<path class="st0" d="M886.8,474.4c1.3,0.3,2.1,1.6,2,2.9c0,1.7-0.4,3.5-1.2,5c-0.8,1.8-1.4,3.4-1.8,4.6
	c-14,30.3-30.5,59.3-49.5,86.7c-19.1,27.7-42.2,52.3-68.7,73c-14.2,10.8-29.1,20.7-44.7,29.4c-16.1,9-33.1,16.3-50.6,22
	c-10.2,3.5-20.6,6.3-31.3,8.1c-10.8,1.6-21.7,2.3-32.6,2c-7.1,0.2-14.1,0-21.2-0.5c-7.3-0.5-14.5-1.7-21.5-3.5
	c-33.3-8.8-58.2-27.5-74.5-56.3c-5.4-9.7-9.7-19.9-12.9-30.5c-3.1-10.2-5.4-20.5-7-31c-3.7-27.2-3.9-54.8-0.3-82
	c4.5-36.6,12.7-72.7,24.5-107.7c11.7-34.5,26.5-67.8,44.4-99.5c19.5-35.4,43.6-68,71.8-97c19.8-20.5,42.4-38.1,67.2-52.3
	c19.3-11.2,40.5-18.6,62.5-21.7c10.2-1.6,20.7-1.2,30.8,1.2c16.1,3.7,26.4,12.9,30.8,27.5c3.1,12,3.1,26.8,0,44.5
	c-3.4,18.8-8.3,37.3-14.7,55.2c-6.3,18.2-13.8,36.1-22.3,53.4c-8.2,16.4-15.7,29.5-22.5,39.3c-1.8,2.3-4.4,3.9-7.3,4.4
	c-3.2,0.5-6.5,0.3-9.6-0.5c-1.7-0.4-3.2-1.4-4.3-2.8c-1.1-1.4-1.3-2.8-0.7-4c0.7-2,1.5-4,2.7-5.8c0.4-1,1-2.1,1.7-3.4
	c2.4-5.5,5.3-11.6,8.6-18.4c7.3-14.9,14.8-31.2,22.7-49c7.6-17.2,14-34.9,19-53.1c4.9-17.7,6.6-33.6,5.3-47.9
	c-2.4-24.1-15.7-33-39.7-26.9c-10.2,2.5-20.1,6.2-29.6,10.8c-9.1,4.4-17.8,9.5-26.3,15c-16.4,10.9-31.8,23.4-45.8,37.3
	c-13.7,13.6-26.4,28.2-37.9,43.7C545.7,323.1,511,409.3,498,505.6c-3.7,28.3-3.6,57.1,0.3,85.4c2.4,17.2,7.7,33.9,15.9,49.3
	c8.4,15.9,18.4,28,30,36.4s23.6,13.9,36.1,16.5c11.6,2.6,23.5,3.3,35.2,2.1c18.8-1.9,37.2-6.6,54.6-14.1
	c34-14.3,61.7-29.5,83.2-45.6c21.5-16.1,39.5-33,54.1-50.8c14.6-17.8,28.3-36.4,41-55.7c5.1-7.7,9.5-15.2,13.2-22.3
	c5.2-9.7,11-19.1,17.2-28.1C881.3,475.4,884,474,886.8,474.4z"/>
<g class="st1">
	<path class="st2" d="M235.5,835.7c12.1,0,22.1,4.3,30,12.9c7.9,8.6,11.8,19.1,11.8,31.5c0,12.4-3.9,22.9-11.8,31.5
		c-7.9,8.6-17.9,12.9-30,12.9h-33.3v-88.7H235.5z M235.5,918c10.3,0,18.8-3.7,25.3-11c6.6-7.3,9.9-16.3,9.9-27.1
		c0-10.7-3.3-19.7-9.9-27.1c-6.6-7.3-15-11-25.3-11h-26.6v76H235.5z"/>
	<path class="st2" d="M326.4,918h44.3v6.3h-51.1v-88.7h50.4v6.3h-43.7v34.5h40.5v6.3h-40.5V918z"/>
</g>
<g class="st1">
	<path class="st2" d="M439.6,925.8c-8.2,0-15.1-1.9-20.8-5.6c-5.7-3.8-9.6-8.8-11.6-15.3l5.8-3.4c1.6,5.5,4.7,9.8,9.2,13.1
		c4.5,3.2,10.3,4.8,17.4,4.8c7.2,0,12.7-1.6,16.5-4.9c3.8-3.3,5.8-7.6,5.8-12.8c0-4.9-1.9-8.7-5.6-11.3c-3.7-2.6-9.5-5.2-17.4-7.7
		c-2.9-0.9-5-1.6-6.3-2.1c-1.3-0.5-3.2-1.2-5.6-2.2c-2.5-1-4.3-1.8-5.4-2.6c-1.2-0.8-2.6-1.8-4.2-3c-1.6-1.3-2.9-2.6-3.6-3.9
		c-0.8-1.3-1.4-2.9-2-4.7c-0.6-1.8-0.9-3.8-0.9-6c0-7.2,2.6-12.9,7.7-17.3c5.1-4.3,11.5-6.5,19.2-6.5c6.9,0,12.8,1.7,17.7,5.2
		c4.9,3.5,8.5,7.9,10.8,13.4l-5.7,3.2c-4.2-10.2-11.8-15.3-22.8-15.3c-6.1,0-10.9,1.6-14.6,4.8c-3.6,3.2-5.4,7.3-5.4,12.3
		c0,4.8,1.7,8.4,5.1,10.8c3.4,2.4,8.9,4.8,16.6,7.3c4.9,1.6,8.7,3,11.5,4.1c2.7,1.1,5.7,2.7,8.9,4.7c3.2,2,5.5,4.4,6.9,7.1
		c1.4,2.7,2.2,5.9,2.2,9.6c0,7.3-2.7,13.2-8,17.7C455.5,923.6,448.4,925.8,439.6,925.8z"/>
</g>
<g class="st1">
	<path class="st2" d="M510,835.7h6.7v88.7H510V835.7z"/>
	<path class="st2" d="M648.5,883.1v3.4c0,11.1-3.9,20.4-11.8,27.9c-7.9,7.6-18.2,11.3-31,11.3c-13.5,0-24.7-4.4-33.5-13.2
		c-8.8-8.8-13.2-19.7-13.2-32.5c0-12.8,4.3-23.7,13.1-32.5c8.7-8.8,19.7-13.2,33.1-13.2c8.1,0,15.6,1.9,22.4,5.8
		c6.8,3.9,12.1,9.1,15.8,15.6l-6,3.5c-3-5.6-7.3-10.1-13.1-13.4c-5.8-3.4-12.1-5.1-19.1-5.1c-11.5,0-20.9,3.8-28.3,11.3
		c-7.4,7.6-11.1,16.9-11.1,27.9c0,11.1,3.7,20.4,11.2,27.9c7.4,7.6,17,11.3,28.8,11.3c10.4,0,18.8-2.8,25.2-8.5
		c6.4-5.7,10-12.8,10.8-21.4H604v-6.3H648.5z"/>
</g>
<g class="st1">
	<path class="st2" d="M749,835.7h6.7v88.7h-6l-52.3-76.3v76.3h-6.7v-88.7h5.8L749,912V835.7z"/>
</g>
<g class="st1">
	<path class="st2" d="M828.9,925.8c-8.2,0-15.1-1.9-20.8-5.6c-5.7-3.8-9.6-8.8-11.6-15.3l5.8-3.4c1.6,5.5,4.7,9.8,9.2,13.1
		c4.5,3.2,10.3,4.8,17.4,4.8c7.2,0,12.7-1.6,16.5-4.9c3.8-3.3,5.8-7.6,5.8-12.8c0-4.9-1.9-8.7-5.6-11.3c-3.7-2.6-9.5-5.2-17.4-7.7
		c-2.9-0.9-5-1.6-6.3-2.1c-1.3-0.5-3.2-1.2-5.6-2.2c-2.5-1-4.3-1.8-5.4-2.6c-1.2-0.8-2.6-1.8-4.2-3c-1.6-1.3-2.9-2.6-3.6-3.9
		c-0.8-1.3-1.4-2.9-2-4.7c-0.6-1.8-0.9-3.8-0.9-6c0-7.2,2.6-12.9,7.7-17.3c5.1-4.3,11.5-6.5,19.2-6.5c6.9,0,12.8,1.7,17.7,5.2
		c4.9,3.5,8.5,7.9,10.8,13.4l-5.7,3.2c-4.2-10.2-11.8-15.3-22.8-15.3c-6.1,0-10.9,1.6-14.6,4.8c-3.6,3.2-5.4,7.3-5.4,12.3
		c0,4.8,1.7,8.4,5.1,10.8c3.4,2.4,8.9,4.8,16.6,7.3c4.9,1.6,8.7,3,11.5,4.1c2.7,1.1,5.7,2.7,8.9,4.7c3.2,2,5.5,4.4,6.9,7.1
		c1.4,2.7,2.2,5.9,2.2,9.6c0,7.3-2.7,13.2-8,17.7C844.7,923.6,837.7,925.8,828.9,925.8z"/>
</g>
</svg>
