<svg id="Layer_1" data-name="Layer 1" xmlns="http://www.w3.org/2000/svg" viewBox="0 0 1080 1080"><defs><style>.cls-1,.cls-2{fill:#fff;}.cls-1{stroke:#fff;stroke-miterlimit:10;}.cls-2{font-size:126.71px;font-family:Gilroy-Light, Gilroy;font-weight:300;letter-spacing:0.2em;}.cls-3{letter-spacing:0.2em;}.cls-4{letter-spacing:0.2em;}.cls-5{letter-spacing:0.19em;}</style></defs><path class="cls-1" d="M544,154a8,8,0,0,1,6,4,3.09,3.09,0,0,1,.16,3.21,21.15,21.15,0,0,1-2.15,2.91q-12.24,10.4-24.82,21.11Q510.88,196,498.63,206.35l-63.55,55.07Q372.86,315,310.64,368.81a666.93,666.93,0,0,0-59.9,57.52A238,238,0,0,0,232.2,449a74,74,0,0,0-9.6,17.13q-6.28,15.3,8,25.39a137.14,137.14,0,0,0,19.52,10.71,247.73,247.73,0,0,0,31.12,11.93q15.88,4.9,32.1,9.18Q367.56,538,421.84,552.38l9.27,2.45c.66.2,1.44.4,2.32.61a50.51,50.51,0,0,1,6.95,2.29,17.73,17.73,0,0,1,6,4.13,4.13,4.13,0,0,1,1,4.13,4.82,4.82,0,0,1-2.65,3.22,17.45,17.45,0,0,1-13.24-.31,91.73,91.73,0,0,0-17.87-6.12q-9.27-2.14-18.86-4-8.28-1.53-16.55-3.67-12.92-3.06-25.82-5.81-34.75-8-68.84-17.75a478.57,478.57,0,0,1-55.6-19.27q-7.6-3.37-9.6-2t-2,9.33q-.33,4.59-.33,8.87a20.81,20.81,0,0,1,.33,3.68v48.34q0,63-.33,125.74,0,15-1.33,30-.33,7-.66,14.38a12.59,12.59,0,0,1-1,5,6.9,6.9,0,0,1-4,3.52q-6,2.44-10.26.31t-5-7.65c-.22-3.26-.44-6.43-.66-9.49q-1.65-22.64-2-45.58V467.63h.33v-61.8q-.33-91.49,0-183.27,0-20.49,1.33-40.69.33-8.56,9.6-9.18Q213,171.48,214.33,181A185.32,185.32,0,0,1,216,205.74V322.61q.33,42.83.33,85.36a128.71,128.71,0,0,0,1,15.91c0,.2.22.41.66.61l1.33.61q.66.31,1,0a2.32,2.32,0,0,0,1.65-.61l1.33-1.22q22.17-24.18,46.5-46t49.15-43.29a40,40,0,0,0,3.3-2.75q74.14-63.94,148.94-127.28,16.54-14.07,32.76-28.15,10.92-8.87,21.85-17.44A23.73,23.73,0,0,1,544,154Z"/><path class="cls-1" d="M886.85,474.36a2.72,2.72,0,0,1,2,2.91,13.18,13.18,0,0,1-1.15,5.05c-.78,1.83-1.38,3.36-1.82,4.59a578.33,578.33,0,0,1-49.49,86.73,333.48,333.48,0,0,1-68.67,73A373.3,373.3,0,0,1,723,676a283.63,283.63,0,0,1-50.64,22,198.65,198.65,0,0,1-31.27,8.11,185.94,185.94,0,0,1-32.6,2,210.89,210.89,0,0,1-21.18-.46,124.17,124.17,0,0,1-21.52-3.52q-50-13.15-74.46-56.29a155.28,155.28,0,0,1-12.91-30.45,220.21,220.21,0,0,1-6.95-31,309.37,309.37,0,0,1-.33-82,542.29,542.29,0,0,1,24.49-107.69A588.56,588.56,0,0,1,540,297.22a451.72,451.72,0,0,1,71.82-97A301.27,301.27,0,0,1,679,147.91a173.6,173.6,0,0,1,62.55-21.72,78.56,78.56,0,0,1,30.79,1.22q24.15,5.51,30.77,27.54,4.64,18,0,44.51a348.64,348.64,0,0,1-14.72,55.23,469.13,469.13,0,0,1-22.34,53.39q-12.25,24.63-22.51,39.31a11.85,11.85,0,0,1-7.28,4.44,24.09,24.09,0,0,1-9.6-.46,7.42,7.42,0,0,1-4.3-2.75q-1.65-2.14-.66-4a27.78,27.78,0,0,1,2.65-5.82q.66-1.53,1.65-3.36,3.64-8.26,8.6-18.36,10.93-22.34,22.68-49a384.64,384.64,0,0,0,19-53.08q7.28-26.48,5.29-47.88-3.65-36.1-39.71-26.93A149.1,149.1,0,0,0,712.27,151,241.53,241.53,0,0,0,686,166a308.74,308.74,0,0,0-45.84,37.33A379,379,0,0,0,602.22,247Q517.5,361.16,498,505.57a316.2,316.2,0,0,0,.33,85.36,148.28,148.28,0,0,0,15.88,49.26q12.59,23.87,30,36.41t36.08,16.52a110.68,110.68,0,0,0,35.25,2.14,185.47,185.47,0,0,0,54.61-14.08q51-21.4,83.23-45.58t54.12-50.79a671.13,671.13,0,0,0,41-55.68q7.6-11.62,13.23-22.34a305.38,305.38,0,0,1,17.21-28.15Q882.55,473.75,886.85,474.36Z"/><text class="cls-2" transform="translate(191.17 924.38)">DE<tspan class="cls-3" x="210.34" y="0">S</tspan><tspan class="cls-4" x="307.78" y="0">IG</tspan><tspan class="cls-5" x="488.47" y="0">N</tspan><tspan class="cls-4" x="599.6" y="0">S</tspan></text></svg>